<?xml version="1.0" standalone="no"?>
<!DOCTYPE svg PUBLIC "-//W3C//DTD SVG 20010904//EN"
 "http://www.w3.org/TR/2001/REC-SVG-20010904/DTD/svg10.dtd">
<svg version="1.0" xmlns="http://www.w3.org/2000/svg"
 width="640.000000pt" height="640.000000pt" viewBox="0 0 640.000000 640.000000"
 preserveAspectRatio="xMidYMid meet">
<metadata>
Created by potrace 1.14, written by Peter Selinger 2001-2017
</metadata>
<g transform="translate(0.000000,640.000000) scale(0.100000,-0.100000)"
fill="#000000" stroke="none">
<path d="M0 3200 l0 -3200 3200 0 3200 0 0 3200 0 3200 -3200 0 -3200 0 0
-3200z m4769 2614 c65 -19 114 -62 129 -111 43 -151 6 -486 -72 -640 -101
-201 -82 -353 43 -341 99 10 163 60 286 223 136 180 182 212 295 202 234 -21
330 -178 230 -377 -59 -116 -256 -288 -497 -433 -289 -173 -560 -275 -779
-292 l-91 -7 -1 88 c-2 153 -35 269 -98 343 -69 81 -124 90 -204 36 -29 -20
-54 -34 -55 -33 -1 2 -10 19 -20 38 -10 19 -33 55 -52 79 l-33 44 0 183 0 184
24 0 c53 0 70 -20 107 -129 42 -120 104 -170 219 -179 173 -12 311 95 339 264
18 114 -3 171 -126 335 -100 133 -126 186 -131 266 -10 147 74 244 237 273 61
12 185 4 250 -16z m-3322 -309 c62 -18 128 -80 145 -136 16 -56 -7 -153 -97
-408 -40 -115 -81 -244 -90 -286 -34 -167 17 -245 160 -245 103 0 162 42 255
180 73 108 104 134 188 159 83 25 198 45 215 38 8 -3 36 -58 62 -122 37 -88
46 -121 39 -133 -7 -11 -43 -22 -105 -33 -109 -19 -151 -35 -198 -75 -67 -56
-80 -141 -32 -216 16 -25 34 -49 41 -53 8 -5 0 -14 -21 -27 -45 -27 -54 -40
-98 -133 -43 -90 -70 -188 -78 -287 l-6 -66 -116 -7 c-218 -14 -496 11 -669
61 -274 78 -394 197 -379 373 10 118 47 193 104 218 33 13 38 13 81 -9 45 -23
78 -64 152 -187 96 -162 384 -57 368 134 -6 66 -32 101 -119 156 -274 173
-307 205 -349 328 -58 174 -39 352 55 501 67 106 235 241 340 273 64 20 90 20
152 2z m2362 -620 c-14 -748 -10 -677 -39 -686 -14 -4 -117 -28 -230 -53 -113
-26 -360 -82 -550 -125 -190 -44 -348 -77 -351 -73 -4 4 -99 232 -212 507
-113 275 -213 518 -222 540 -13 29 -13 36 -3 29 273 -212 579 -444 586 -444 4
0 34 156 66 348 32 191 62 353 66 360 5 10 82 -84 235 -282 125 -163 231 -296
234 -296 3 0 100 147 215 325 115 179 210 324 211 323 1 -2 -2 -214 -6 -473z
m340 -414 c101 -72 143 -334 92 -588 -31 -160 -85 -251 -159 -270 -41 -10
-183 13 -283 47 -51 17 -99 28 -107 25 -12 -4 -13 -30 -8 -158 7 -188 15 -325
22 -354 8 -41 39 -27 70 33 43 82 116 159 169 180 40 15 53 15 100 5 95 -21
195 -112 255 -231 60 -121 143 -421 162 -591 10 -93 10 -114 -5 -175 -30 -120
-77 -192 -152 -231 -47 -25 -153 -29 -216 -8 -113 37 -253 136 -390 278 l-76
78 -55 -61 c-63 -69 -114 -158 -134 -234 -38 -141 1 -235 181 -440 141 -160
185 -242 185 -340 0 -254 -404 -781 -721 -941 -248 -125 -847 -147 -1204 -43
-178 51 -294 126 -470 303 -193 192 -218 262 -219 624 -1 151 -5 226 -12 228
-6 2 -28 -10 -49 -27 -51 -41 -88 -40 -130 4 -93 99 -64 334 71 568 73 128
168 243 226 274 33 17 100 18 116 2 16 -16 15 -66 -2 -114 -14 -42 -12 -64 9
-64 7 0 55 48 106 106 226 254 447 416 635 463 155 38 482 81 621 81 82 0 104
11 97 48 -4 23 0 30 35 49 48 28 145 116 186 170 l29 40 23 -91 c57 -227 180
-291 297 -154 127 148 147 663 34 888 -66 131 -166 146 -237 36 l-27 -43 -28
23 c-27 24 -46 28 -96 24 -62 -5 -219 -116 -291 -207 -19 -23 -40 -40 -47 -38
-7 3 -56 -20 -108 -50 -288 -166 -451 -218 -575 -182 -118 35 -189 134 -189
267 0 169 98 430 161 430 11 0 17 -4 14 -10 -3 -5 0 -7 9 -4 9 3 45 -22 96
-68 257 -231 268 -239 384 -262 165 -34 206 -15 214 93 4 51 8 60 26 65 156
38 820 186 827 184 5 -2 -5 -32 -21 -66 -35 -74 -38 -102 -12 -102 12 0 42 33
85 94 78 109 80 111 132 121 49 8 55 17 55 80 0 49 2 52 78 131 117 123 164
145 221 105z m-1757 -490 c40 -10 101 -22 135 -26 57 -6 62 -9 72 -37 9 -26
15 -29 36 -24 83 20 75 23 75 -28 0 -36 -5 -49 -22 -60 -20 -13 -33 -13 -113
3 -49 9 -101 23 -115 30 -35 19 -147 111 -195 161 l-40 41 47 -21 c26 -11 80
-29 120 -39z m1016 -106 c142 -161 125 -797 -24 -914 -29 -23 -74 -27 -104
-11 -32 17 -68 91 -89 180 -50 217 -30 478 51 660 55 123 109 151 166 85z
m-258 -40 c37 -19 44 -45 26 -97 -29 -86 -48 -206 -53 -333 l-5 -130 -41 -54
c-140 -188 -319 -281 -381 -198 -48 65 -11 369 64 522 50 104 196 244 301 290
43 18 54 18 89 0z"/>
<path d="M3959 4150 c-54 -28 -163 -159 -224 -268 -7 -13 10 -42 25 -42 5 0
34 39 66 87 63 95 143 178 180 187 33 9 64 -10 64 -37 0 -25 -19 -57 -63 -104
-30 -32 -32 -63 -4 -63 19 0 95 82 107 116 19 50 12 90 -21 118 -37 31 -79 33
-130 6z"/>
<path d="M2105 3834 c-40 -44 -66 -162 -40 -184 22 -18 34 -4 41 50 8 59 37
110 63 110 26 0 108 -57 197 -136 71 -64 94 -72 94 -34 0 21 -134 144 -208
191 -60 38 -113 39 -147 3z"/>
<path d="M3950 3231 c-60 -60 -90 -118 -129 -252 -36 -123 -91 -358 -91 -388
0 -28 119 -189 169 -229 44 -36 116 -71 143 -72 9 0 31 -20 48 -44 33 -49 56
-61 98 -51 42 9 123 75 161 130 l33 50 -5 130 c-4 121 -45 367 -78 475 -19 59
-69 152 -110 204 -57 72 -95 96 -146 96 -39 0 -49 -5 -93 -49z m297 -333 c-3
-8 -6 -5 -6 6 -1 11 2 17 5 13 3 -3 4 -12 1 -19z m-46 -25 c-12 -20 -14 -14
-5 12 4 9 9 14 11 11 3 -2 0 -13 -6 -23z m96 -145 c-3 -8 -6 -5 -6 6 -1 11 2
17 5 13 3 -3 4 -12 1 -19z m-150 -30 c-3 -8 -6 -5 -6 6 -1 11 2 17 5 13 3 -3
4 -12 1 -19z m160 -30 c-3 -7 -5 -2 -5 12 0 14 2 19 5 13 2 -7 2 -19 0 -25z
m-180 -40 c-3 -8 -6 -5 -6 6 -1 11 2 17 5 13 3 -3 4 -12 1 -19z m200 -200 c-2
-24 -4 -7 -4 37 0 44 2 63 4 43 2 -21 2 -57 0 -80z m-220 -20 c-2 -24 -4 -7
-4 37 0 44 2 63 4 43 2 -21 2 -57 0 -80z m121 47 c-3 -3 -9 2 -12 12 -6 14 -5
15 5 6 7 -7 10 -15 7 -18z m-73 -195 l20 -25 -22 19 c-13 11 -23 24 -23 29 0
6 1 8 3 6 1 -2 11 -15 22 -29z m50 0 c-3 -5 -11 -10 -16 -10 -6 0 -7 5 -4 10
3 6 11 10 16 10 6 0 7 -4 4 -10z"/>
<path d="M2558 2661 c-73 -24 -195 -90 -267 -145 -139 -107 -219 -223 -283
-407 -27 -81 -32 -108 -33 -194 0 -84 3 -106 22 -140 24 -46 54 -75 103 -101
67 -36 341 -19 357 23 10 26 -11 32 -67 17 -30 -9 -95 -16 -145 -17 -79 -1
-96 2 -135 23 -124 69 -125 257 -4 507 35 73 60 108 117 166 132 133 301 226
429 235 66 5 68 4 102 -30 21 -21 37 -49 41 -72 8 -39 29 -56 47 -38 8 8 8 23
-1 54 -37 123 -138 165 -283 119z"/>
<path d="M2624 2342 c-77 -56 -146 -151 -165 -226 -14 -54 -4 -135 17 -143 23
-9 27 2 25 74 -1 59 3 75 28 118 33 57 101 129 142 151 28 14 59 10 59 -8 0
-15 -31 -71 -61 -109 -19 -24 -25 -39 -19 -50 14 -21 38 -3 83 61 61 88 46
160 -35 160 -23 0 -49 -10 -74 -28z"/>
<path d="M3357 3538 c-25 -20 -37 -63 -37 -136 0 -84 23 -136 62 -140 39 -5
59 40 59 130 0 81 -15 134 -41 148 -23 13 -23 13 -43 -2z"/>
<path d="M2885 3494 c-46 -50 -45 -179 2 -234 52 -62 105 -14 111 100 5 82 -1
113 -28 140 -27 27 -56 25 -85 -6z"/>
</g>
</svg>
